<?xml version="1.0" encoding="UTF-8"?>
<svg width="214px" height="50px" viewBox="0 0 214 50" version="1.1" xmlns="http://www.w3.org/2000/svg" xmlns:xlink="http://www.w3.org/1999/xlink">
    <!-- Generator: Sketch 59.1 (86144) - https://sketch.com -->
    <title>logo_provelop</title>
    <desc>Created with Sketch.</desc>
    <g id="logo_provelop" stroke="none" stroke-width="1" fill="none" fill-rule="evenodd">
        <g id="Group">
            <path d="M194.913313,38.8154479 C191.73324,38.8154479 189.269011,36.4061373 189.269011,32.752416 C189.269011,29.1384502 191.73324,26.6887531 194.913313,26.6887531 C198.093386,26.6887531 200.557615,29.1384502 200.557615,32.752416 C200.557615,36.4061373 198.093386,38.8154479 194.913313,38.8154479 L194.913313,38.8154479 Z M194.913313,21.2277333 C192.841362,21.2277333 190.901211,21.7590689 189.229033,22.707522 L189.229033,21.2277333 L183.544754,21.2277333 L183.544754,50 L189.229033,50 L189.229033,42.8092997 C190.893715,43.7482872 192.830118,44.2770987 194.913313,44.2770987 C201.312813,44.2770987 206.321225,39.418091 206.321225,32.752416 C206.321225,26.0861099 201.232858,21.2277333 194.913313,21.2277333 L194.913313,21.2277333 Z M70.9341747,34.6594187 C70.9341747,30.257284 74.6845501,26.6887531 79.0420814,26.6887531 L79.0420814,21.3078754 C71.4245219,21.3078754 65.2492703,27.5463364 65.2492703,35.2412376 L65.2492703,43.7949841 L70.9341747,43.7949841 L70.9341747,34.6594187 Z M169.433373,38.8154479 C166.253924,38.8154479 163.789071,36.4061373 163.789071,32.752416 C163.789071,29.1384502 166.253924,26.6887531 169.433373,26.6887531 C172.613446,26.6887531 175.0783,29.1384502 175.0783,32.752416 C175.0783,36.4061373 172.613446,38.8154479 169.433373,38.8154479 L169.433373,38.8154479 Z M169.433373,21.2277333 C163.153181,21.2277333 158.065438,26.0861099 158.065438,32.752416 C158.065438,39.3777045 163.073226,44.2770987 169.433373,44.2770987 C175.833497,44.2770987 180.84191,39.418091 180.84191,32.752416 C180.84191,26.0861099 175.754167,21.2277333 169.433373,21.2277333 L169.433373,21.2277333 Z M149.638337,43.7949841 L155.322617,43.7949841 L155.322617,15.6859404 L149.638337,15.6859404 L149.638337,43.7949841 Z M135.805549,25.9662123 C138.54837,25.9662123 140.336732,27.6125956 140.972622,30.0212751 L130.519169,30.0212751 C131.234388,27.6523511 133.02275,25.9662123 135.805549,25.9662123 L135.805549,25.9662123 Z M135.964209,44.2770987 C140.654677,44.2770987 145.0272,41.9883167 146.656901,36.7683542 L140.773984,36.7683542 C140.018787,38.5346351 138.111118,39.5386196 135.924856,39.5386196 C132.983398,39.5386196 130.598499,37.7717078 130.241201,34.237884 L147.014823,34.237884 C147.571383,26.9695658 143.079553,21.2277333 135.844901,21.2277333 C129.167434,21.2277333 124.437614,26.166883 124.437614,32.7921715 C124.437614,39.3777045 129.127457,44.2770987 135.964209,44.2770987 L135.964209,44.2770987 Z M124.476342,21.7092168 L118.434765,21.7092168 L113.545659,37.5710371 L108.695907,21.7092168 L102.65433,21.7092168 L110.166324,43.7949841 L116.964348,43.7949841 L124.476342,21.7092168 Z M91.3251228,38.8154479 C88.1450494,38.8154479 85.6808204,36.4061373 85.6808204,32.752416 C85.6808204,29.1384502 88.1450494,26.6887531 91.3251228,26.6887531 C94.5051963,26.6887531 96.9688006,29.1384502 96.9688006,32.752416 C96.9688006,36.4061373 94.5051963,38.8154479 91.3251228,38.8154479 L91.3251228,38.8154479 Z M91.3251228,21.2277333 C85.0449307,21.2277333 79.9565634,26.0861099 79.9565634,32.752416 C79.9565634,39.3777045 84.964976,44.2770987 91.3251228,44.2770987 C97.7246224,44.2770987 102.733035,39.418091 102.733035,32.752416 C102.733035,26.0861099 97.6446677,21.2277333 91.3251228,21.2277333 L91.3251228,21.2277333 Z M54.4472649,29.2583478 L48.6836551,29.2583478 L48.6836551,21.1469602 L54.4472649,21.1469602 C57.3887235,21.1469602 58.8197878,22.7138324 58.8197878,25.203285 C58.8197878,27.6523511 57.3887235,29.2583478 54.4472649,29.2583478 L54.4472649,29.2583478 Z M64.5833976,25.1231429 C64.5833976,19.2197642 60.648127,15.6859404 54.6858797,15.6859404 L43,15.6859404 L43,43.7949841 L48.6836551,43.7949841 L48.6836551,34.7199986 L54.6858797,34.7199986 C60.648127,34.7199986 64.5833976,31.0258907 64.5833976,25.1231429 L64.5833976,25.1231429 Z M210.097836,22.0815304 C208.392552,22.0815304 206.990221,20.6799906 206.990221,18.9427376 C206.990221,17.2048536 208.392552,15.8026828 210.097836,15.8026828 C211.80312,15.8026828 213.191083,17.2048536 213.191083,18.9427376 C213.191083,20.6799906 211.80312,22.0815304 210.097836,22.0815304 L210.097836,22.0815304 Z M210.097836,15 C207.944056,15 206.195671,16.7675429 206.195671,18.9427376 C206.195671,21.1185634 207.944056,22.8848442 210.097836,22.8848442 C212.251615,22.8848442 214,21.1185634 214,18.9427376 C214,16.7675429 212.251615,15 210.097836,15 L210.097836,15 Z M210.256496,18.7824535 L209.577505,18.7824535 L209.577505,17.9204529 L210.256496,17.9204529 C210.618791,17.9204529 210.733725,18.0668542 210.733725,18.3438807 C210.733725,18.6209073 210.618791,18.7824535 210.256496,18.7824535 L210.256496,18.7824535 Z M211.774386,18.300339 C211.774386,17.5550808 211.326515,17.0584523 210.516973,17.0584523 L208.58057,17.0584523 L208.58057,20.8554197 L209.577505,20.8554197 L209.577505,19.5409635 L209.823616,19.5409635 L210.762459,20.8554197 L211.96178,20.8554197 L210.921744,19.453249 C211.442074,19.2929648 211.774386,18.8991959 211.774386,18.300339 L211.774386,18.300339 Z" id="Fill-25" fill="#011B71"></path>
            <path d="M11.3195871,34 L1.68041287,34 C0.752423672,34 0,33.24754 0,32.3195061 L0,22.6798669 C0,21.7518329 0.752423672,21 1.68041287,21 L11.3195871,21 C12.2475763,21 13,21.7518329 13,22.6798669 L13,32.3195061 C13,33.24754 12.2475763,34 11.3195871,34" id="Fill-29" fill="#011B71"></path>
            <path d="M0,11.9033083 L0,1.09420392 C0,0.489726798 0.490353849,0 1.09483097,0 L11.9033083,0 C12.8783726,0 13.3668453,1.1788558 12.6770892,1.86861185 L1.86861185,12.6770892 C1.1788558,13.3668453 0,12.8783726 0,11.9033083" id="Fill-31" fill="#62269C"></path>
            <path d="M18,22.7885129 C18,23.5179662 18.6360779,24.0735896 19.3563796,23.9920476 C25.3456945,23.3144272 30,18.2038295 30,12.0003161 C30,5.79617052 25.3456945,0.685572793 19.3563796,0.00795241411 C18.6360779,-0.0735895904 18,0.482033836 18,1.21148712 L18,22.7885129 Z" id="Fill-33" fill="#FF5A5A"></path>
        </g>
    </g>
</svg>