<?xml version="1.0" encoding="UTF-8"?>
<svg width="256px" height="256px" viewBox="0 0 256 256" version="1.1" xmlns="http://www.w3.org/2000/svg" xmlns:xlink="http://www.w3.org/1999/xlink">
    <!-- Generator: Sketch 59.1 (86144) - https://sketch.com -->
    <title>default_avatar</title>
    <desc>Created with Sketch.</desc>
    <g id="default_avatar" stroke="none" stroke-width="1" fill="none" fill-rule="evenodd">
        <g id="Group-2">
            <circle id="Oval" fill="#EAECF3" cx="128" cy="128" r="128"></circle>
            <g id="noun_avatar_3353287" transform="translate(51.000000, 48.000000)" fill="#FFFFFF" fill-rule="nonzero">
                <g id="Group">
                    <path d="M144.963576,130.459889 L100.8557,113.405785 C99.9787782,113.009628 99.157075,112.501686 98.4111547,111.894671 C91.6392186,115.456081 84.1024758,117.326334 76.4469929,117.345108 C68.9120207,117.332816 61.4916029,115.504522 54.8174816,112.015877 C54.1453973,112.560703 53.4130496,113.027068 52.6347145,113.405883 L8.07316839,130.474905 C3.20986462,132.337693 0,136.996919 0,142.193354 L0,142.304 C0,148.620932 4.70570433,153.953934 10.9873495,154.755618 L16.8226461,155.500529 C56.443201,160.557583 96.550975,160.515574 136.160795,155.375532 L142.038957,154.612603 C147.74401,153.872269 152.219369,149.367071 152.909268,143.669814 C153.599168,137.972558 150.327929,132.53401 144.963675,130.459988 L144.963576,130.459889 Z" id="Path"></path>
                    <path d="M76.5,0.737821538 C76.4493866,0.737821538 76.4042023,0.743236923 76.3535889,0.743236923 C76.3029755,0.743236923 76.2578158,0.737821538 76.2072024,0.737821538 C34.9981331,0.737821538 36.744406,38.6170338 37.9572024,55.1966523 C38.3247912,62.3643718 39.6498645,69.4510842 41.8973226,76.2690708 C45.3787734,85.8070935 52.1647752,93.7889197 61.0297258,98.7729723 C70.6098624,103.857528 82.0975375,103.857528 91.677674,98.7729723 C100.54256,93.788888 107.328497,85.8070657 110.809905,76.2690708 C113.057354,69.451083 114.382419,62.3643707 114.75,55.1966523 C115.962796,38.6170338 117.709069,0.737821538 76.5,0.737821538 Z" id="Path"></path>
                </g>
            </g>
        </g>
    </g>
</svg>